<mxfile host="65bd71144e">
    <diagram id="o8GFrnF6oiVryfsX9A0t" name="Page-1">
        <mxGraphModel dx="1600" dy="978" grid="1" gridSize="10" guides="1" tooltips="1" connect="1" arrows="1" fold="1" page="1" pageScale="1" pageWidth="1169" pageHeight="827" math="0" shadow="0">
            <root>
                <mxCell id="0"/>
                <mxCell id="1" parent="0"/>
                <mxCell id="2" value="Window Title" style="strokeWidth=1;shadow=0;dashed=0;align=center;html=1;shape=mxgraph.mockup.containers.window;align=left;verticalAlign=top;spacingLeft=8;strokeColor2=#008cff;strokeColor3=#c4c4c4;fontColor=#666666;mainText=;fontSize=17;labelBackgroundColor=none;whiteSpace=wrap;" vertex="1" parent="1">
                    <mxGeometry x="160" y="80" width="1300" height="850" as="geometry"/>
                </mxCell>
                <mxCell id="3" value="&lt;font style=&quot;font-size: 46px;&quot;&gt;result twelve&lt;/font&gt;" style="rounded=1;whiteSpace=wrap;html=1;arcSize=4;" vertex="1" parent="1">
                    <mxGeometry x="435" y="225" width="750" height="560" as="geometry"/>
                </mxCell>
                <mxCell id="4" value="&lt;font style=&quot;font-size: 31px;&quot;&gt;12&lt;/font&gt;" style="rounded=1;whiteSpace=wrap;html=1;arcSize=25;" vertex="1" parent="1">
                    <mxGeometry x="497.5" y="250" width="625" height="60" as="geometry"/>
                </mxCell>
                <mxCell id="5" value="&lt;font style=&quot;font-size: 23px;&quot;&gt;Read (song)&lt;/font&gt;" style="rounded=1;whiteSpace=wrap;html=1;arcSize=11;" vertex="1" parent="1">
                    <mxGeometry x="497.5" y="680" width="362.5" height="60" as="geometry"/>
                </mxCell>
                <mxCell id="6" value="&lt;font style=&quot;font-size: 23px;&quot;&gt;Translate&lt;/font&gt;" style="rounded=1;whiteSpace=wrap;html=1;arcSize=11;" vertex="1" parent="1">
                    <mxGeometry x="890" y="680" width="200" height="60" as="geometry"/>
                </mxCell>
            </root>
        </mxGraphModel>
    </diagram>
</mxfile>